<svg width="95" height="95" viewBox="0 0 95 95" fill="none" xmlns="http://www.w3.org/2000/svg">
<g clip-path="url(#clip0)">
<path d="M28.8324 64.548C28.8319 64.5493 28.8315 64.5506 28.8311 64.5519V72.5717L30.245 78.7102L30.2532 78.7458L30.2563 78.7821L30.971 87.1413L30.9954 87.4271L30.7656 87.5988L27.9998 89.6659C27.9192 90.1962 27.9332 90.7371 28.0416 91.2634C28.1631 91.8532 28.4008 92.413 28.7409 92.91C29.0809 93.4071 29.5165 93.8315 30.0222 94.1585C30.528 94.4855 31.0937 94.7085 31.6865 94.8147C32.2793 94.9208 32.8873 94.9079 33.4751 94.7766C34.0628 94.6454 34.6186 94.3985 35.11 94.0503C35.6013 93.7021 36.0185 93.2596 36.3371 92.7486C36.6283 92.2815 36.8319 91.7657 36.9383 91.2265L35.1518 87.4039L35.0775 87.2448L35.1155 87.0734L36.7093 79.8949C36.859 79.2203 36.8123 78.5169 36.5745 77.8681L35.1348 73.939L35.0581 73.7298L35.1578 73.5305L38.2556 67.3348L38.2931 67.2599L38.3523 67.2006L42.4048 63.1481C42.4145 63.1235 42.4258 63.0952 42.4387 63.0634C42.4875 62.9434 42.5595 62.7739 42.6542 62.5713C42.8429 62.1675 43.1248 61.6253 43.4961 61.0796C44.1337 60.1424 45.1272 59.061 46.462 58.8324V24.6086H42.8478H42.7544L42.6668 24.5758L34.6022 21.557L27.775 24.5471L18.517 30.7113L16.5427 38.5144L21.5888 50.625L26.1156 54.2442C27.2431 54.1999 28.3153 53.7325 29.1162 52.9316C29.9589 52.0889 30.4323 50.946 30.4323 49.7542C30.4323 48.5625 29.9589 47.4195 29.1162 46.5769C28.4938 45.9545 27.7076 45.5335 26.8589 45.3559L25.913 45.2608H25.3937L25.4233 44.7164L25.8106 37.592L25.8211 37.3984L25.9565 37.2596L29.3722 33.7569L30.003 33.1101L30.2401 33.9819L31.4389 38.3897C31.9204 39.5807 32.5471 40.3018 33.2098 40.7631C33.8842 41.2327 34.6311 41.458 35.3872 41.6027C35.7048 41.6635 36.0148 41.7085 36.3235 41.7534C36.3848 41.7623 36.446 41.7712 36.5072 41.7802C36.8687 41.8335 37.2337 41.8912 37.5676 41.9784C38.238 42.1537 38.8993 42.4801 39.1992 43.2605C39.7477 44.6791 39.674 46.6168 39.3646 48.3984C39.0522 50.197 38.4802 51.9433 37.9372 53.0291C37.8308 53.242 37.6496 53.4165 37.4776 53.5556C37.2969 53.7017 37.0765 53.8474 36.8397 53.9921C36.56 54.163 36.224 54.3519 35.8712 54.5501C35.6404 54.6799 35.4024 54.8136 35.1684 54.949C33.9296 55.6656 32.6796 56.4967 32.0312 57.5166C31.1184 58.9525 30.3119 60.7263 29.7302 62.1545C29.4405 62.8659 29.2087 63.4862 29.0495 63.9282C28.9699 64.1491 28.9085 64.3253 28.8672 64.4458C28.8533 64.4863 28.8417 64.5205 28.8324 64.548Z" fill="#FF0000" fill-opacity="0.2" stroke="#FF0000" stroke-width="1.03261"/>
<path d="M58.8661 12.4003L56.8336 19.2371L52.9533 21.7935L49.5 22.2163V2.61386L52.9145 3.3193L56.835 6.38869L57.8521 9.39891L58.8661 12.4003Z" fill="#0000FF" fill-opacity="0.2" stroke="#0000FF"/>
<path d="M37.5245 12.4003L39.5571 19.2371L43.4373 21.7935L46.8906 22.2163V2.61386L43.4761 3.3193L39.5556 6.38869L38.5386 9.39891L37.5245 12.4003Z" fill="#FF0000" fill-opacity="0.2" stroke="#FF0000"/>
<path d="M67.1111 64.4458C67.1256 64.4883 67.1377 64.5238 67.1472 64.5519V72.5717L65.7333 78.7102L65.7251 78.7458L65.722 78.7821L65.0073 87.1413L64.9829 87.4271L65.2127 87.5989L67.9785 89.6659C68.0591 90.1962 68.0451 90.7371 67.9367 91.2634C67.8151 91.8532 67.5774 92.413 67.2374 92.91C66.8973 93.4071 66.4618 93.8315 65.956 94.1585C65.4503 94.4855 64.8846 94.7085 64.2918 94.8147C63.699 94.9208 63.091 94.9079 62.5032 94.7767C61.9154 94.6454 61.3597 94.3985 60.8683 94.0503C60.3769 93.7022 59.9598 93.2596 59.6412 92.7486C59.3499 92.2815 59.1464 91.7657 59.0399 91.2265L60.8264 87.4039L60.9008 87.2448L60.8627 87.0734L59.269 79.8949C59.1192 79.2203 59.166 78.5169 59.4037 77.8681L60.8435 73.939L60.9201 73.7298L60.8205 73.5305L57.7227 67.3348L57.6852 67.2599L57.626 67.2006L53.5734 63.1481C53.5638 63.1235 53.5525 63.0952 53.5396 63.0634C53.4908 62.9434 53.4188 62.7739 53.3241 62.5713C53.1354 62.1675 52.8535 61.6253 52.4822 61.0796C51.8446 60.1424 50.8511 59.061 49.5163 58.8324V24.6086H53.1304H53.2239L53.3114 24.5758L61.3761 21.557L68.2033 24.5471L77.4613 30.7113L79.4356 38.5144L74.3895 50.625L69.8627 54.2442C68.7352 54.1999 67.663 53.7325 66.862 52.9316C66.0194 52.0889 65.5459 50.946 65.5459 49.7542C65.5459 48.5625 66.0194 47.4195 66.862 46.5769C67.4845 45.9544 68.2707 45.5335 69.1194 45.3559L70.0653 45.2608H70.5845L70.5549 44.7164L70.1677 37.592L70.1572 37.3984L70.0218 37.2596L66.606 33.7569L65.9753 33.1101L65.7382 33.9819L64.5393 38.3897C64.0567 39.5842 63.4254 40.3428 62.7516 40.8535C62.0673 41.3722 61.3116 41.6562 60.5532 41.8614C60.2352 41.9474 59.9247 42.0177 59.6165 42.0875C59.5547 42.1014 59.493 42.1154 59.4314 42.1295C59.0697 42.212 58.7068 42.2986 58.3757 42.4108C57.7132 42.6351 57.0724 42.9971 56.7791 43.7605C56.231 45.1781 56.3035 46.9895 56.6149 48.6549C56.9289 50.3348 57.5026 51.9522 58.041 53.0291C58.1475 53.242 58.3287 53.4165 58.5007 53.5556C58.6814 53.7017 58.9018 53.8474 59.1385 53.9921C59.4183 54.163 59.7543 54.3519 60.107 54.5501C60.3378 54.6799 60.5758 54.8136 60.8099 54.949C62.0487 55.6656 63.2987 56.4967 63.947 57.5166C64.8598 58.9525 65.6664 60.7263 66.248 62.1545C66.5378 62.8659 66.7696 63.4862 66.9288 63.9282C67.0084 64.1491 67.0697 64.3253 67.1111 64.4458Z" fill="#0000FF" fill-opacity="0.2" stroke="#0000FF" stroke-width="1.03261"/>
<path d="M43 29C43 28.7239 42.7761 28.5 42.5 28.5H38C37.7239 28.5 37.5 28.7239 37.5 29C37.5 29.2761 37.7239 29.5 38 29.5H42V33.5C42 33.7761 42.2239 34 42.5 34C42.7761 34 43 33.7761 43 33.5V29ZM37.3536 34.8536L42.8536 29.3536L42.1464 28.6464L36.6464 34.1464L37.3536 34.8536Z" fill="#FF0000"/>
<path d="M52.9987 34.5013C52.9987 34.7774 53.2226 35.0013 53.4987 35.0013H57.9987C58.2749 35.0013 58.4987 34.7774 58.4987 34.5013C58.4987 34.2251 58.2749 34.0013 57.9987 34.0013H53.9987V30.0013C53.9987 29.7251 53.7749 29.5013 53.4987 29.5013C53.2226 29.5013 52.9987 29.7251 52.9987 30.0013V34.5013ZM58.6464 28.6464L53.1452 34.1477L53.8523 34.8548L59.3536 29.3536L58.6464 28.6464Z" fill="#0000FF"/>
</g>
<defs>
<clipPath id="clip0">
<rect width="95" height="95" fill="white" transform="matrix(-1 0 0 1 95 0)"/>
</clipPath>
</defs>
</svg>
