<svg width="86" height="85" viewBox="0 0 86 85" fill="none" xmlns="http://www.w3.org/2000/svg">
<path d="M0.826617 84.0395L1.04236 0.947418H5.16875V79.9842V80.4842H5.66875H85.0304V84.0408L1.04366 84.2565V84.0395H0.826617Z" fill="#808080" stroke="black"/>
<path d="M84.5505 11.1507L84.5548 11.1506C84.5771 11.1504 84.5993 11.1548 84.6199 11.1633C84.6405 11.1719 84.6591 11.1846 84.6747 11.2005C84.6903 11.2165 84.7025 11.2354 84.7106 11.2563C84.7187 11.277 84.7225 11.2993 84.7218 11.3216L84.7215 11.3296V11.3376L84.7215 31.2611C84.7215 31.2614 84.7215 31.2616 84.7215 31.2619C84.721 31.3071 84.7046 31.3506 84.6753 31.3847L77.2044 23.8827L76.8094 23.4861L76.4597 23.9231L53.53 52.58L38.208 42.1887L37.8266 41.9301L37.5378 42.2892L17.2274 67.5391L16.9511 59.7412L37.7071 32.6377L53.3488 43.6767L53.7385 43.9517L54.0316 43.5754L72.5424 19.8086L72.8132 19.4608L72.5021 19.1485L64.5824 11.1976C64.6166 11.168 64.6602 11.1513 64.7056 11.1506L84.5505 11.1507Z" fill="#00FF7F" stroke="#00990F"/>
</svg>
